<svg xmlns:xlink="http://www.w3.org/1999/xlink" viewBox="0 0 32 32" id="email" overflow="hidden">
  <defs></defs>
  <g style="pointer-events:none">
    <title style="pointer-events:inherit">background</title>
    <rect x="-1" y="-1" width="582" height="402" id="canvas_background" fill="none" style="pointer-events:inherit"></rect>
  </g>
  <g style="pointer-events:all">
    <title style="pointer-events:inherit">Layer 1</title>
    <path d="M16,0C7.163,0 0,7.163 0,16C0,24.836 7.163,32 16,32S32,24.836 32,16C32,7.163 24.837,0 16,0z" fill="#333333" style="pointer-events:inherit" id="svg_2"></path>
    <polygon fill="#FFFFFF" points="6.518,21.815 11.707,15.291 6.518,12.119   " style="pointer-events:inherit" id="svg_4"></polygon>
    <polygon fill="#FFFFFF" points="19.5,15.746 15.989,17.908 12.472,15.758 7.11,22.5 24.867,22.5   " style="pointer-events:inherit" id="svg_5"></polygon>
    <polygon fill="#FFFFFF" points="15.988,16.864 25.482,11.017 25.482,9.5 6.518,9.5 6.518,11.076   " style="pointer-events:inherit" id="svg_6"></polygon>
    <polygon fill="#FFFFFF" points="20.263,15.276 25.482,21.843 25.482,12.062   " style="pointer-events:inherit" id="svg_7"></polygon>
  </g>
</svg>