<!-- <svg xmlns:xlink="http://www.w3.org/1999/xlink" id="svgcontent" viewBox="0 0 48 48" overflow="hidden" width="679.2000050496" height="679.2000050496" x="229.8999974752" y="84.8999974752"><defs></defs><g style="pointer-events:none"><title style="pointer-events:inherit">background</title><rect x="-1" y="-1" width="582" height="402" id="canvas_background" fill="none" style="pointer-events:inherit"></rect></g><g style="pointer-events:all"><title style="pointer-events:inherit">Layer 1</title><circle cx="24" cy="24" fill="#1CB7EB" r="24" style="pointer-events:inherit" id="svg_1"></circle><path d="M36.8,15.4C35.9,15.9 34.8,16.2 33.8,16.3C34.9,15.6 35.7,14.5 36.1,13.2C35.1,13.8 34,14.3 32.7,14.6C31.7,13.5 30.4,12.8 28.9,12.8C26,12.8 23.6,15.3 23.6,18.5C23.6,18.9 23.6,19.4 23.7,19.8C19.3,19.6 15.4,17.3 12.8,13.9C12.3,14.7 12.1,15.7 12.1,16.8C12.1,18.8 13,20.5 14.4,21.5C13.5,21.5 12.7,21.2 12,20.8C12,20.8 12,20.9 12,20.9C12,23.6 13.8,25.9 16.2,26.5C15.8,26.6 15.3,26.7 14.8,26.7C14.5,26.7 14.1,26.7 13.8,26.6C14.5,28.9 16.4,30.5 18.7,30.5C16.9,32 14.6,32.9 12.2,32.9C11.8,32.9 11.4,32.9 10.9,32.8C13.2,34.4 16,35.4 19,35.4C28.7,35.4 34,26.8 34,19.3C34,19.1 34,18.8 34,18.6C35.2,17.6 36.1,16.6 36.8,15.4z" fill="#FFFFFF" style="pointer-events:inherit" id="svg_4"></path></g></svg> -->
<svg xmlns:xlink="http://www.w3.org/1999/xlink" id="twitter" viewBox="0 0 48 48" overflow="hidden">
  <defs></defs>
  <g style="pointer-events:all">
    <title style="pointer-events:inherit">bg</title>
    <circle cx="24" cy="24" fill="#1CB7EB" r="24" style="pointer-events:inherit" id="svg_1"></circle>
    <path d="M36.8,15.4C35.9,15.9 34.8,16.2 33.8,16.3C34.9,15.6 35.7,14.5 36.1,13.2C35.1,13.8 34,14.3 32.7,14.6C31.7,13.5 30.4,12.8 28.9,12.8C26,12.8 23.6,15.3 23.6,18.5C23.6,18.9 23.6,19.4 23.7,19.8C19.3,19.6 15.4,17.3 12.8,13.9C12.3,14.7 12.1,15.7 12.1,16.8C12.1,18.8 13,20.5 14.4,21.5C13.5,21.5 12.7,21.2 12,20.8C12,20.8 12,20.9 12,20.9C12,23.6 13.8,25.9 16.2,26.5C15.8,26.6 15.3,26.7 14.8,26.7C14.5,26.7 14.1,26.7 13.8,26.6C14.5,28.9 16.4,30.5 18.7,30.5C16.9,32 14.6,32.9 12.2,32.9C11.8,32.9 11.4,32.9 10.9,32.8C13.2,34.4 16,35.4 19,35.4C28.7,35.4 34,26.8 34,19.3C34,19.1 34,18.8 34,18.6C35.2,17.6 36.1,16.6 36.8,15.4z" fill="#FFFFFF" style="pointer-events:inherit" id="svg_4"></path>
  </g>
</svg>